<svg width="45" height="45" viewBox="0 0 45 45" fill="none" xmlns="http://www.w3.org/2000/svg">
<path d="M43.1999 0H1.8C0.804373 0 0 0.804373 0 1.8V43.1999C0 44.1955 0.804373 44.9999 1.8 44.9999H43.1999C44.1955 44.9999 44.9999 44.1955 44.9999 43.1999V1.8C44.9999 0.804373 44.1955 0 43.1999 0ZM38.0024 13.1343H34.408C31.5899 13.1343 31.0443 14.4731 31.0443 16.4418V20.7787H37.7718L36.8943 27.5681H31.0443V44.9999H24.0299V27.5737H18.1631V20.7787H24.0299V15.7725C24.0299 9.96185 27.5793 6.79498 32.7655 6.79498C35.2518 6.79498 37.3837 6.98061 38.008 7.06498V13.1343H38.0024Z" fill="#F5F5F5"/>
</svg>
