<svg width="26" height="24" viewBox="0 0 26 24" fill="none" xmlns="http://www.w3.org/2000/svg">
<path d="M25.9258 21.3361L20.8399 16.2501C21.3361 15.0097 21.088 13.3971 19.9715 12.4047C18.8551 11.2883 17.2425 11.0402 15.878 11.6604L18.2349 14.0173L16.4982 15.7539L14.0173 13.273C13.3971 14.6375 13.6452 16.2501 14.7616 17.4906C15.878 18.607 17.3666 18.8551 18.607 18.3589L23.6929 23.4449C23.941 23.6929 24.3132 23.6929 24.4372 23.4449L25.6777 22.2044C26.0498 21.8322 26.0498 21.4601 25.9258 21.3361ZM13.6452 19.8475H0V17.3666C0 14.6375 4.46569 12.4047 9.92375 12.4047C10.544 12.4047 11.1642 12.4047 11.6604 12.5287C11.2883 13.273 11.1642 14.0173 11.1642 14.8856C11.1642 16.8704 12.1566 18.7311 13.6452 19.8475ZM9.92375 0C7.19472 0 4.96187 2.23284 4.96187 4.96187C4.96187 7.6909 7.19472 9.92375 9.92375 9.92375C12.6528 9.92375 14.8856 7.6909 14.8856 4.96187C14.8856 2.23284 12.6528 0 9.92375 0Z" fill="black"/>
</svg>
