<svg width="45" height="45" viewBox="0 0 45 45" fill="none" xmlns="http://www.w3.org/2000/svg">
<path d="M43.1999 0H1.8C0.804373 0 0 0.804373 0 1.8V43.1999C0 44.1955 0.804373 44.9999 1.8 44.9999H43.1999C44.1955 44.9999 44.9999 44.1955 44.9999 43.1999V1.8C44.9999 0.804373 44.1955 0 43.1999 0ZM34.6105 16.2956C34.6274 16.56 34.6274 16.8356 34.6274 17.1056C34.6274 25.3631 28.3387 34.8749 16.8468 34.8749C13.3031 34.8749 10.0181 33.8455 7.25061 32.0737C7.75686 32.1299 8.24061 32.1524 8.75811 32.1524C11.6831 32.1524 14.3718 31.1624 16.515 29.4862C13.77 29.4299 11.4637 27.6299 10.6762 25.1549C11.6381 25.2956 12.5043 25.2956 13.4943 25.0424C12.0809 24.7553 10.8105 23.9877 9.89894 22.87C8.98737 21.7523 8.49084 20.3535 8.49373 18.9112V18.8325C9.3206 19.2993 10.2937 19.5862 11.3118 19.6256C10.456 19.0552 9.75405 18.2824 9.26835 17.3758C8.78265 16.4691 8.52817 15.4566 8.52748 14.4281C8.52748 13.2637 8.83123 12.2006 9.37685 11.2781C10.9457 13.2094 12.9033 14.7889 15.1226 15.914C17.3418 17.0391 19.773 17.6847 22.2581 17.8087C21.375 13.5618 24.5474 10.125 28.3612 10.125C30.1612 10.125 31.7812 10.8787 32.923 12.0937C34.3349 11.8293 35.6849 11.3006 36.8887 10.5918C36.4218 12.0375 35.443 13.2581 34.1437 14.0287C35.4037 13.8937 36.6187 13.545 37.7437 13.0556C36.8943 14.3043 35.8312 15.4125 34.6105 16.2956Z" fill="#F5F5F5"/>
</svg>
