<svg width="45" height="45" viewBox="0 0 45 45" fill="none" xmlns="http://www.w3.org/2000/svg">
<path d="M43.1999 0H1.8C0.804373 0 0 0.804373 0 1.8V43.1999C0 44.1955 0.804373 44.9999 1.8 44.9999H43.1999C44.1955 44.9999 44.9999 44.1955 44.9999 43.1999V1.8C44.9999 0.804373 44.1955 0 43.1999 0ZM13.3481 38.3455H6.67123V16.8693H13.3481V38.3455ZM10.0125 13.9331C9.24707 13.9331 8.49884 13.7061 7.86242 13.2809C7.22601 12.8556 6.72998 12.2512 6.43707 11.5441C6.14416 10.8369 6.06752 10.0588 6.21685 9.3081C6.36617 8.5574 6.73475 7.86783 7.27598 7.3266C7.81721 6.78538 8.50677 6.4168 9.25748 6.26747C10.0082 6.11815 10.7863 6.19479 11.4935 6.4877C12.2006 6.78061 12.805 7.27663 13.2303 7.91305C13.6555 8.54947 13.8825 9.29769 13.8825 10.0631C13.8768 12.2006 12.1443 13.9331 10.0125 13.9331ZM38.3455 38.3455H31.6743V27.8999C31.6743 25.4081 31.6293 22.2074 28.2037 22.2074C24.7331 22.2074 24.1987 24.9187 24.1987 27.7199V38.3455H17.5331V16.8693H23.9343V19.8056H24.0243C24.9131 18.1181 27.0899 16.335 30.3412 16.335C37.1024 16.335 38.3455 20.7843 38.3455 26.5668V38.3455Z" fill="#F5F5F5"/>
</svg>
